<?xml version="1.0" standalone="no"?><!DOCTYPE svg PUBLIC "-//W3C//DTD SVG 1.1//EN" "http://www.w3.org/Graphics/SVG/1.1/DTD/svg11.dtd"><svg t="1617941099127" class="icon" viewBox="0 0 1024 1024" version="1.1" xmlns="http://www.w3.org/2000/svg" p-id="8147" xmlns:xlink="http://www.w3.org/1999/xlink" width="200" height="200"><defs><style type="text/css"></style></defs><path d="M295.62 481.685h-75.878c-4.441 0-7.55-1.516-9.367-4.546-0.881-2.401-1.327-4.729-1.327-6.927V428.5c0-3.021-1.094-5.649-3.298-7.848-2.198-2.224-4.916-3.342-8.109-3.342-3.015 0-5.626 1.119-7.824 3.342-2.199 2.199-3.313 4.828-3.313 7.848v41.712c0 9.853 3.313 18.217 9.918 25.064 6.205 6.04 14.222 9.061 24.055 9.061H296.335c4.451 0 7.561 1.516 9.378 4.531 0.886 2.416 1.322 4.728 1.322 6.943v79.732c0 3.01 1.113 5.644 3.326 7.863 2.174 2.208 4.888 3.316 8.097 3.316 2.996 0 5.614-1.108 7.808-3.316 2.204-2.218 3.313-4.853 3.313-7.863v-79.732c0-9.879-3.313-18.242-9.934-25.08-6.189-6.036-14.21-9.046-24.025-9.046zM197.624 518.291c-3 0-5.595 1.116-7.804 3.324-2.213 2.229-3.312 4.834-3.312 7.855V595.552c0 3.013 1.099 5.636 3.312 7.855 2.209 2.219 4.898 3.316 8.102 3.316 3.016 0 5.619-1.097 7.843-3.316 2.188-2.218 3.287-4.842 3.287-7.855V529.47c0-3.021-1.099-5.626-3.287-7.855-2.224-2.208-4.932-3.324-8.141-3.324zM956.04 485.002c-2.203-2.224-4.813-3.317-7.803-3.317h-66.262c-9.809 0-17.936 3.11-24.356 9.353-6.389 6.244-9.609 14.493-9.609 24.773v79.782c0 3.021 1.1 5.634 3.303 7.842 2.211 2.229 4.923 3.329 8.126 3.329 3.016 0 5.616-1.1 7.813-3.329 2.219-2.208 3.324-4.821 3.324-7.842v-79.782c0-7.656 3.698-11.474 11.126-11.474h66.534c2.989 0 5.6-1.119 7.803-3.327 2.208-2.214 3.298-4.923 3.298-8.161 0-3.019-1.089-5.648-3.297-7.847zM533.303 518.281c-3.01 0-5.605 1.126-7.813 3.334-2.198 2.229-3.308 4.845-3.308 7.865v66.071c0 3.013 1.111 5.647 3.308 7.844 2.208 2.229 4.912 3.337 8.106 3.337 3.021 0 5.61-1.108 7.836-3.337 2.19-2.198 3.298-4.832 3.298-7.844V529.48c0-3.021-1.108-5.636-3.298-7.865-2.226-2.208-4.925-3.334-8.129-3.334zM621.321 481.685h-88.018c-3.01 0-5.605 1.094-7.818 3.317-2.192 2.199-3.303 4.828-3.303 7.848 0 3.238 1.111 5.946 3.303 8.161 2.213 2.208 4.808 3.327 7.818 3.327h88.306c7.419 0 11.121 3.818 11.121 11.474v79.732c0 3.01 1.11 5.644 3.313 7.863 2.198 2.208 4.803 3.316 7.808 3.316 3.22 0 5.932-1.108 8.127-3.316 2.193-2.218 3.298-4.853 3.298-7.863v-79.732c0-10.28-3.204-18.529-9.616-24.773-6.408-6.244-14.535-9.354-24.339-9.354zM463.903 481.685h-76.334c-11.224 0-19.944 3.921-26.163 11.779-5.007 6.224-7.511 13.686-7.511 22.347v56.787c0 9.872 3.005 17.923 9.027 24.142 6.803 6.655 15.122 9.974 24.945 9.974h76.036c11.21 0 20.029-3.912 26.436-11.777 5.02-6.237 7.517-13.596 7.517-22.054v-57.071c0-9.87-2.996-17.926-8.998-24.169-6.803-6.641-15.136-9.958-24.955-9.958z m11.418 46.575v44.338c0 2.208-0.435 4.505-1.331 6.94-1.808 3.031-5.037 4.547-9.671 4.547h-76.451c-2.209 0-4.496-0.476-6.912-1.348-3.01-1.811-4.51-4.96-4.51-9.407v-57.519c0-2.215 0.43-4.512 1.322-6.943 1.816-3.015 4.941-4.531 9.368-4.531h76.769c2.197 0 4.505 0.431 6.897 1.332 3.015 1.812 4.52 4.956 4.52 9.412v13.179zM789.743 481.685H713.41c-11.241 0-19.956 3.921-26.149 11.779-5.027 6.224-7.531 13.686-7.531 22.347v56.787c0 9.872 3.015 17.923 9.02 24.142 6.789 6.655 15.114 9.974 24.936 9.974h76.056c11.21 0 20.024-3.912 26.426-11.777 5.028-6.237 7.531-13.596 7.531-22.054v-57.071c0-9.87-3.021-17.926-9.02-24.169-6.81-6.641-15.122-9.958-24.936-9.958z m11.418 46.575v44.338c0 2.208-0.441 4.505-1.338 6.94-1.811 3.031-5.035 4.547-9.671 4.547h-76.466c-2.197 0-4.497-0.476-6.898-1.348-3.015-1.811-4.515-4.96-4.515-9.407v-57.519c0-2.215 0.442-4.512 1.327-6.943 1.816-3.015 4.936-4.531 9.373-4.531h76.769c2.192 0 4.502 0.431 6.888 1.332 3.021 1.812 4.531 4.956 4.531 9.412v13.179zM145.906 457.006v-3.793c0-3.135-0.955-5.71-2.856-7.655-2.149-2.089-4.833-3.159-7.958-3.159H75.07c-3.566 0-6.368 1.243-8.319 3.704-1.594 1.981-2.406 4.352-2.406 7.11v3.793a3.102 3.102 0 0 0 3.099 3.09 3.09 3.09 0 0 0 3.09-3.09v-3.793c0-0.832 0.184-1.699 0.506-2.6l0.05-0.103c0.753-1.273 2.039-1.922 3.837-1.922h60.166c0.837 0 1.709 0.169 2.595 0.5l0.105 0.055c1.282 0.767 1.926 2.055 1.926 3.818v4.045c0 1.699 1.406 3.09 3.099 3.09a3.093 3.093 0 0 0 3.088-3.09z" p-id="8148"></path><path d="M100.099 471.579c1.347 0.797 1.936 2.039 1.936 3.827v26.754c0 1.757 1.386 3.159 3.1 3.159a3.103 3.103 0 0 0 3.094-3.1v-44.747a3.092 3.092 0 0 0-3.094-3.094 3.096 3.096 0 0 0-3.1 3.094v8.354s-0.618-0.317-0.817-0.396c-0.955-0.357-2.228-0.594-3.555-0.594h-22.54a3.092 3.092 0 0 0-3.104 3.085 3.101 3.101 0 0 0 3.104 3.099h22.288c0.831-0.002 2.109 0.208 2.688 0.559zM135.146 471.018a3.107 3.107 0 0 0 3.104-3.099c0-1.709-1.401-3.085-3.104-3.085h-19.429a3.09 3.09 0 0 0-3.095 3.085 3.1 3.1 0 0 0 3.095 3.099h19.429z" p-id="8149"></path><path d="M93.801 480.982a3.154 3.154 0 0 0-0.797-2.259 3.083 3.083 0 0 0-2.307-1.039c-0.749 0-1.471 0.286-2.06 0.802l-0.01 0.009-19.964 17.558a3.023 3.023 0 0 0-1.01 2.119c-0.06 0.841 0.203 1.638 0.752 2.252a3.079 3.079 0 0 0 2.322 1.05h0.03c0.747 0 1.461-0.282 2.02-0.788l19.974-17.587a3.13 3.13 0 0 0 1.05-2.117zM139.548 501.476h0.01c0.877 0 1.718-0.387 2.288-1.05a3.07 3.07 0 0 0 0.781-2.252 3.041 3.041 0 0 0-1.044-2.119l-19.995-17.603a3.118 3.118 0 0 0-2.039-0.767c-0.857 0-1.718 0.391-2.313 1.049-0.554 0.614-0.811 1.416-0.762 2.249a3.069 3.069 0 0 0 1.024 2.119l19.984 17.587a3.046 3.046 0 0 0 2.066 0.787zM143.02 425.709h-11.434v-5.289c0-1.709-1.386-3.11-3.079-3.11a3.124 3.124 0 0 0-3.125 3.11v5.289H86.498v-5.289c0-1.709-1.397-3.11-3.095-3.11a3.112 3.112 0 0 0-3.099 3.11v5.289H67.241a3.083 3.083 0 0 0-3.085 3.089c0 1.709 1.377 3.1 3.085 3.1h13.063v2.584a3.105 3.105 0 0 0 3.099 3.101 3.108 3.108 0 0 0 3.095-3.101v-2.584h38.883v2.584c0 1.709 1.402 3.101 3.125 3.101 1.693 0 3.079-1.392 3.079-3.101v-2.584h11.434a3.09 3.09 0 0 0 3.095-3.1 3.08 3.08 0 0 0-3.094-3.089zM99.485 539.501h5.264a3.101 3.101 0 0 0 3.104-3.091 3.094 3.094 0 0 0-3.104-3.089h-5.264a3.088 3.088 0 0 0-3.085 3.089 3.094 3.094 0 0 0 3.085 3.091zM127.046 539.501h5.234c1.723 0 3.119-1.388 3.119-3.091 0-1.711-1.395-3.089-3.119-3.089h-5.234a3.095 3.095 0 0 0-3.095 3.089 3.102 3.102 0 0 0 3.095 3.091z" p-id="8150"></path><path d="M99.485 552.76h15.979c0.871 0 1.728-0.366 2.298-1.019 0.034-0.039 0.05-0.049 0.08-0.06l0.019-0.029a3.074 3.074 0 0 0 0.703-1.97v-18.806c0-3.149-0.956-5.715-2.862-7.674-2.144-2.09-4.833-3.159-7.957-3.159h-8.26c-1.697 0-3.085 1.385-3.085 3.11a3.086 3.086 0 0 0 3.085 3.081l8.26 0.018c0.832 0 1.688 0.159 2.609 0.497l0.089 0.05c1.278 0.752 1.917 2.038 1.917 3.82v15.966H99.485c-1.697 0-3.085 1.406-3.085 3.099a3.083 3.083 0 0 0 3.085 3.076zM143.153 566.12c1.644-0.039 2.962-1.416 2.962-3.081a3.078 3.078 0 0 0-2.992-3.078l-0.128-0.01H107.12c-3.575 0-6.358 1.239-8.317 3.713-1.585 1.962-2.407 4.348-2.407 7.1v25.174c0 2.754 0.822 5.15 2.407 7.092 1.945 2.485 4.743 3.724 7.442 3.724h36.007c2.545-0.071 3.863-1.427 3.863-3.099a3.088 3.088 0 0 0-2.992-3.091l-0.114-0.01h-14.572v-8.338h14.582c1.699 0 3.095-1.377 3.095-3.078 0-1.704-1.396-3.11-3.095-3.11h-14.582v-5.349h14.582c1.699 0 3.095-1.406 3.095-3.099a3.095 3.095 0 0 0-3.095-3.099h-14.582v-8.338l14.716-0.023z m-20.92 8.36h-11.581a3.093 3.093 0 0 0-3.1 3.099 3.113 3.113 0 0 0 3.1 3.099h11.581v5.349h-11.581c-1.709 0-3.1 1.406-3.1 3.11 0 1.701 1.391 3.078 3.1 3.078h11.581v8.338h-15.251c-2.233 0-3.257-1.019-3.782-1.892-0.362-0.622-0.609-1.889-0.609-2.723v-25.174c0-0.82 0.169-1.712 0.495-2.603l0.059-0.11c0.763-1.257 2.085-1.91 3.837-1.91h15.251v8.339zM71.455 567.704a3.092 3.092 0 0 0-3.085 3.091v32.859c0 1.701 1.382 3.099 3.085 3.099a3.111 3.111 0 0 0 3.11-3.099v-32.859a3.104 3.104 0 0 0-3.11-3.091zM67.236 550.86c1.714 0 3.11-1.406 3.11-3.099v-15.984a3.098 3.098 0 0 0-3.11-3.091 3.082 3.082 0 0 0-3.079 3.091v15.984c-0.001 1.693 1.381 3.099 3.079 3.099zM83.239 531.777v15.984a3.118 3.118 0 0 0 3.104 3.099c1.699 0 3.085-1.406 3.085-3.099v-15.984a3.087 3.087 0 0 0-3.085-3.091 3.098 3.098 0 0 0-3.104 3.091z" p-id="8151"></path><path d="M91.464 600.485h-0.52c-0.822 0-1.693-0.17-2.579-0.496l-0.115-0.057c-1.262-0.753-1.92-2.041-1.92-3.833v-33.8h1.306c1.709 0 3.106-1.395 3.106-3.089a3.107 3.107 0 0 0-3.106-3.101h-7.758v-34.244a3.096 3.096 0 0 0-3.09-3.102 3.094 3.094 0 0 0-3.095 3.102v34.244h-6.461c-1.699 0-3.076 1.387-3.076 3.101 0 1.693 1.377 3.089 3.076 3.089H80.13v33.562c0 3.12 0.956 5.694 2.857 7.653 2.159 2.101 4.833 3.159 7.967 3.159h0.51a3.102 3.102 0 0 0 3.099-3.099c0-1.694-1.395-3.089-3.099-3.089zM135.295 520.042h-8.249a3.105 3.105 0 0 0-3.095 3.11c0 1.704 1.397 3.081 3.095 3.081l8.249 0.018a7.38 7.38 0 0 1 2.589 0.497l0.1 0.05c1.287 0.752 1.926 2.038 1.926 3.82v15.966h-12.864c-1.698 0-3.095 1.406-3.095 3.099 0 1.704 1.397 3.078 3.095 3.078h15.968a3.08 3.08 0 0 0 2.307-1.019l0.089-0.089a3.118 3.118 0 0 0 0.704-1.97v-18.806c0-3.138-0.956-5.715-2.862-7.674-2.144-2.092-4.833-3.161-7.957-3.161z" p-id="8152"></path></svg>