<?xml version="1.0" standalone="no"?><!DOCTYPE svg PUBLIC "-//W3C//DTD SVG 1.1//EN" "http://www.w3.org/Graphics/SVG/1.1/DTD/svg11.dtd"><svg t="1618976192215" class="icon" viewBox="0 0 2278 1024" version="1.1" xmlns="http://www.w3.org/2000/svg" p-id="1436" xmlns:xlink="http://www.w3.org/1999/xlink" width="444.921875" height="200"><defs><style type="text/css"></style></defs><path d="M1282.77845334 258.21184c138.77248-0.32768 252.14976 112.39424 252.3136 250.78442667 0.16384 142.5408-109.55434667 254.22506667-250.23829334 254.7712-140.84778667 0.49152-252.25898667-111.79349333-253.51509333-255.42656-1.20149333-133.25653333 115.99872-249.856 251.43978667-250.12906667z m-167.28064 251.87669333c-0.60074667 94.59029333 73.89184 169.46517333 168.86442666 169.68362667 92.67882667 0.21845333 168.31829333-75.14794667 168.42752-167.936 0.16384-91.80501333-75.20256-167.66293333-168.04522666-169.02826667-91.04042667-1.36533333-168.70058667 75.3664-169.24672 167.28064zM1951.19104 259.6864c145.76298667 2.51221333 254.49813333 114.25109333 251.65824 258.59413333-2.67605333 138.99093333-116.43562667 247.61685333-256.95573333 245.37770667-139.20938667-2.18453333-249.36448-117.91018667-246.74304-259.24949333 2.56682667-136.04181333 116.92714667-247.07072 252.04053333-244.72234667z m-169.13749333 250.89365333c-0.54613333 91.20426667 75.74869333 168.70058667 167.55370667 170.17514667 90.33045333 1.47456 169.35594667-75.91253333 170.50282666-166.89834667 1.14688-92.5696-75.96714667-170.72128-168.7552-170.99434666-91.36810667-0.32768-168.80981333 76.40405333-169.30133333 167.71754666zM617.58805334 760.70912c-117.58250667 7.09973333-238.66026667-89.56586667-252.3136-223.47776-15.29173333-149.85898667 105.62218667-273.72202667 238.27797333-277.27189333 149.0944-4.04138667 267.0592 108.51669333 263.12704 252.47744-23.15605333 0-46.58517333 1.36533333-69.68661333-0.98304-5.67978667-0.60074667-13.32565333-12.94336-14.58176-20.75306667-11.57802667-72.14421333-52.97493333-120.96853333-121.56928-139.70090667-69.632-19.06005333-130.90816 1.41994667-177.49333334 59.85621334-75.69408 94.91797333-20.37077333 244.61312 99.83317334 263.7824 30.47424 4.86058667 37.90165333 16.71168 34.73408 43.74528-1.69301333 13.98101333-0.32768 28.39893333-0.32768 42.32533333zM199.03146667 424.40021333v339.20341334c-24.02986667 0-47.24053333 0.92842667-70.28736-0.76458667-4.58752-0.32768-12.12416-10.59498667-12.12416-16.32938667-0.43690667-101.85386667-0.21845333-203.65312 1.14688-305.45237333 0.05461333-5.62517333 11.14112-15.12789333 17.85856-15.83786667 19.71541333-2.18453333 39.81312-0.8192 63.40608-0.8192z" p-id="1437"></path><path d="M869.6832 717.45536c-14.03562667 13.98101333-33.04106667 32.98645333-51.17269333 51.06346667-68.92202667-68.15744-137.02485333-135.60490667-206.76608-204.52693334 18.89621333-17.14858667 38.12010667-34.57024 54.72256-49.64352 65.91829333 65.80906667 134.18496 134.02112 203.21621333 203.10698667zM118.53141334 343.40864c-0.70997333-11.85109333-1.47456-18.95082667-1.52917334-26.05056-0.8192-65.48138667-0.65536-65.97290667 65.15370667-58.76394667 6.66282667 0.70997333 16.93013333 10.21269333 17.53088 16.43861334 2.18453333 21.2992 0.8192 42.98069333 0.8192 68.32128h-42.10688c-12.39722667 0.05461333-24.84906667 0.05461333-39.86773333 0.05461333z" p-id="1438"></path></svg>