<?xml version="1.0" standalone="no"?><!DOCTYPE svg PUBLIC "-//W3C//DTD SVG 1.1//EN" "http://www.w3.org/Graphics/SVG/1.1/DTD/svg11.dtd"><svg t="1617940742180" class="icon" viewBox="0 0 1024 1024" version="1.1" xmlns="http://www.w3.org/2000/svg" p-id="1005" xmlns:xlink="http://www.w3.org/1999/xlink" width="200" height="200"><defs><style type="text/css"></style></defs><path d="M528 592.4h33.3V430.2H528zM268 430.207H91.2c-14.9 0-27 12.1-27 27v135.2H96v-125c0-6 4.8-10.8 10.8-10.8h56.9v135.8h31.8v-135.8h56.9c6 0 10.8 4.8 10.8 10.8v125H295v-135.2c0-14.9-12.1-27-27-27M328.8 457.207v108.2c0 14.9 12.1 27 27 27h137.8v-26.4H371.4c-6 0-10.8-4.8-10.8-10.8v-30.6h126.5v-26.5H360.6v-30.6c0-6 4.8-10.8 10.8-10.8h122.3v-26.4H355.9c-15-0.1-27.1 12-27.1 26.9M738.8 430.207H596.5v26.4h117.7l-112.9 100.3c-18.1 15.5-6.3 35.5 8.7 35.5h143.9v-26.4H633.8l113.2-100.3c18.2-16.4 7.3-35.5-8.2-35.5M928.427 430.207v125c0 6-4.8 10.8-10.8 10.8h-90.8c-6 0-10.8-4.8-10.8-10.8v-125h-31.7v135.2c0 14.9 12.1 27 27 27h121.8c15 0 27.1-12.1 27.1-27v-135.2h-31.8z" p-id="1006"></path></svg>