<?xml version="1.0" standalone="no"?><!DOCTYPE svg PUBLIC "-//W3C//DTD SVG 1.1//EN" "http://www.w3.org/Graphics/SVG/1.1/DTD/svg11.dtd"><svg t="1617941131831" class="icon" viewBox="0 0 1024 1024" version="1.1" xmlns="http://www.w3.org/2000/svg" p-id="8894" xmlns:xlink="http://www.w3.org/1999/xlink" width="200" height="200"><defs><style type="text/css"></style></defs><path d="M0 512a512 512 0 1 0 512-512 512 512 0 0 0-512 512z" fill="#FF6702" p-id="8895"></path><path d="M823.296 706.88a4.352 4.352 0 0 1-4.096 4.48h-80.128a4.352 4.352 0 0 1-4.16-4.416V317.248a4.288 4.288 0 0 1 4.096-4.48h80.128a4.224 4.224 0 0 1 4.16 4.352v389.824z" fill="#FFFFFF" p-id="8896"></path><path d="M467.584 717.44a4.352 4.352 0 0 1-4.16 4.48H383.296a4.352 4.352 0 0 1-4.16-4.416V483.008a4.224 4.224 0 0 1 4.096-4.48h80.192a4.288 4.288 0 0 1 4.16 4.48z" fill="#FFFFFF" p-id="8897"></path><path d="M623.936 706.944V427.52a111.04 111.04 0 0 0-106.688-115.2H217.344a4.224 4.224 0 0 0-4.16 4.352v389.952a4.288 4.288 0 0 0 4.096 4.48h80.128a4.352 4.352 0 0 0 4.16-4.416V401.024a4.288 4.288 0 0 1 4.096-4.48H478.08a60.928 60.928 0 0 1 58.56 63.04v247.36a4.288 4.288 0 0 0 4.096 4.48h79.04a4.48 4.48 0 0 0 4.16-4.48z" fill="#FFFFFF" p-id="8898"></path></svg>