<?xml version="1.0" standalone="no"?><!DOCTYPE svg PUBLIC "-//W3C//DTD SVG 1.1//EN" "http://www.w3.org/Graphics/SVG/1.1/DTD/svg11.dtd"><svg t="1617940999216" class="icon" viewBox="0 0 1024 1024" version="1.1" xmlns="http://www.w3.org/2000/svg" p-id="5707" xmlns:xlink="http://www.w3.org/1999/xlink" width="200" height="200"><defs><style type="text/css"></style></defs><path d="M512 512m-512 0a512 512 0 1 0 1024 0 512 512 0 1 0-1024 0Z" fill="#53CB7A" p-id="5708"></path><path d="M210.2016 623.9488c26.7968 0 48.576-8.768 65.3248-26.3232 16.7488-17.5488 25.1264-39.68 25.1264-66.3744v-39.296c0-26.6048-8.4032-48.704-25.2032-66.304-16.8-17.6-38.5472-26.4-65.248-26.4-26.2016 0-47.4752 8.8-63.8272 26.4-16.352 17.6-24.5248 39.6992-24.5248 66.304v39.296c0 26.7008 8.1984 48.8256 24.6016 66.368 16.3968 17.5552 37.6512 26.3296 63.744 26.3296z m0-29.8496c-16 0-28.6528-5.8752-37.952-17.6256-9.2992-11.7504-13.952-26.8224-13.952-45.2224V491.648c0-18.1952 4.6272-33.152 13.8752-44.8448 9.2544-11.7056 21.9264-17.5552 38.0288-17.5552 16.5952 0 29.7472 5.8496 39.4496 17.5552 9.696 11.6992 14.5472 26.6496 14.5472 44.8448v39.6032c0 18.496-4.8256 33.6-14.4704 45.2992-9.6512 11.6992-22.8288 17.5488-39.5264 17.5488zM375.8016 620.8V537.9968h47.2512c24.096 0 42.9696-6.1696 56.6208-18.5216 13.6512-12.352 20.48-28.7744 20.48-49.28 0-20.2944-6.8288-36.672-20.48-49.12-13.6512-12.448-32.5248-18.6752-56.6208-18.6752H339.3472V620.8h36.4544z m47.2512-112.0512h-47.2512V431.648h47.2512c13.4976 0 23.648 3.6992 30.4448 11.104 6.8032 7.3984 10.2016 16.6464 10.2016 27.7504 0 11.0976-3.3984 20.2496-10.2016 27.4496-6.7968 7.2-16.9472 10.7968-30.4448 10.7968zM571.4048 620.8V537.9968h47.2448c24.1024 0 42.976-6.1696 56.6272-18.5216 13.6512-12.352 20.4736-28.7744 20.4736-49.28 0-20.2944-6.8224-36.672-20.48-49.12-13.6448-12.448-32.5184-18.6752-56.6208-18.6752H534.9504V620.8h36.448z m47.2448-112.0512h-47.2512V431.648h47.2512c13.504 0 23.648 3.6992 30.4512 11.104 6.7968 7.3984 10.2016 16.6464 10.2016 27.7504 0 11.0976-3.4048 20.2496-10.2016 27.4496-6.8032 7.2-16.9536 10.7968-30.4512 10.7968z m193.0496 115.2c26.8032 0 48.576-8.768 65.3248-26.3232 16.7488-17.5488 25.1264-39.68 25.1264-66.3744v-39.296c0-26.6048-8.4032-48.704-25.2032-66.304-16.8-17.6-38.5472-26.4-65.248-26.4-26.2016 0-47.4752 8.8-63.8272 26.4-16.3456 17.6-24.5248 39.6992-24.5248 66.304v39.296c0 26.7008 8.2048 48.8256 24.6016 66.368 16.4032 17.5552 37.6512 26.3296 63.7504 26.3296z m0-29.8496c-16 0-28.6464-5.8752-37.952-17.6256-9.2992-11.7504-13.952-26.8224-13.952-45.2224V491.648c0-18.1952 4.6272-33.152 13.8816-44.8448 9.248-11.7056 21.92-17.5552 38.0224-17.5552 16.6016 0 29.7536 5.8496 39.4496 17.5552 9.7024 11.6992 14.5536 26.6496 14.5536 44.8448v39.6032c0 18.496-4.8256 33.6-14.4768 45.2992-9.6512 11.6992-22.8224 17.5488-39.5264 17.5488z" fill="#FFFFFF" p-id="5709"></path></svg>