<?xml version="1.0" standalone="no"?><!DOCTYPE svg PUBLIC "-//W3C//DTD SVG 1.1//EN" "http://www.w3.org/Graphics/SVG/1.1/DTD/svg11.dtd"><svg t="1618969540286" class="icon" viewBox="0 0 3276 1024" version="1.1" xmlns="http://www.w3.org/2000/svg" p-id="1581" xmlns:xlink="http://www.w3.org/1999/xlink" width="639.84375" height="200"><defs><style type="text/css"></style></defs><path d="M1850.026667 40.96v259.413333c-75.093333-20.48-150.186667-27.306667-225.28-20.48-95.573333 20.48-225.28 88.746667-252.586667 334.506667-27.306667 191.146667 102.4 368.64 293.546667 402.773333 109.226667 6.826667 225.28-6.826667 327.68-47.786666V0l-143.36 40.96z m0 846.506667s-157.013333 54.613333-238.933334-20.48c-81.92-75.093333-95.573333-177.493333-81.92-293.546667 13.653333-116.053333 95.573333-232.106667 320.853334-157.013333V887.466667zM464.213333 566.613333c34.133333-13.653333 68.266667-34.133333 102.4-68.266666 109.226667-116.053333 109.226667-300.373333-6.826666-409.6C505.173333 40.96 436.906667 13.653333 368.64 13.653333H0V1024h143.36V587.093333h163.84L505.173333 1024h170.666667L464.213333 566.613333zM143.36 471.04V136.533333h191.146667c88.746667 0 163.84 81.92 163.84 170.666667S423.253333 464.213333 334.506667 471.04H143.36zM1297.066667 703.146667V607.573333c-6.826667-197.973333-116.053333-341.333333-300.373334-341.333333h-34.133333c-177.493333 0-320.853333 150.186667-314.026667 327.68v95.573333c0 177.493333 143.36 327.68 320.853334 334.506667h68.266666c75.093333-6.826667 157.013333-27.306667 225.28-61.44v-122.88c-122.88 75.093333-314.026667 81.92-389.12 20.48-47.786667-34.133333-75.093333-95.573333-68.266666-157.013333H1297.066667z m-498.346667-116.053334v-6.826666c0-102.4 81.92-184.32 184.32-184.32 102.4 0 170.666667 54.613333 184.32 184.32v13.653333h-368.64v-6.826667z m2450.773333-273.066666V1024h-143.36V314.026667h143.36z m-1194.666666 47.786666c75.093333-54.613333 163.84-88.746667 259.413333-88.746666 163.84 0 211.626667 54.613333 238.933333 81.92 54.613333-47.786667 122.88-75.093333 197.973334-81.92 122.88-6.826667 279.893333 20.48 279.893333 218.453333v525.653333h-143.36V532.48S2880.853333 409.6 2785.28 409.6c-54.613333-13.653333-122.88 6.826667-170.666667 54.613333V1024h-143.36V546.133333c0-40.96-13.653333-81.92-47.786666-109.226666-68.266667-40.96-157.013333-40.96-225.28 0V1024h-143.36V361.813333zM3276.8 109.226667c0 54.613333-47.786667 95.573333-95.573333 88.746666-54.613333 0-95.573333-47.786667-88.746667-95.573333 0-47.786667 40.96-88.746667 95.573333-88.746667 47.786667 0 88.746667 40.96 88.746667 95.573334z" p-id="1582"></path></svg>