<?xml version="1.0" standalone="no"?><!DOCTYPE svg PUBLIC "-//W3C//DTD SVG 1.1//EN" "http://www.w3.org/Graphics/SVG/1.1/DTD/svg11.dtd"><svg t="1617940952356" class="icon" viewBox="0 0 1024 1024" version="1.1" xmlns="http://www.w3.org/2000/svg" p-id="4953" xmlns:xlink="http://www.w3.org/1999/xlink" width="200" height="200"><defs><style type="text/css"></style></defs><path d="M882.273 595.409h-97.45c-30.847-0.074-55.916-25.392-55.972-56.589v-4.791c0.054-31.197 25.124-56.498 55.972-56.571h97.45c30.829 0.074 55.879 25.373 55.945 56.571l0.007 4.791c-0.074 31.196-25.125 56.515-55.954 56.589v0 0zM882.273 441.231h-97.45c-50.951 0.019-92.374 41.646-92.374 92.798v4.791c0 51.172 41.423 92.797 92.374 92.818h97.45c50.905-0.019 92.347-41.646 92.347-92.818v-4.791c0-51.154-41.443-92.78-92.347-92.798v0 0z" p-id="4954"></path><path d="M190.092 632.521c0.065 0 0.202 0 0.414 0 19.054 0.074 34.302-8.569 48.215-28.451l87.878-129.284c2.286-3.372 3.382-7.205 3.382-11.001 0-6.173-2.921-12.235-8.339-16.032-3.326-2.303-7.14-3.409-10.891-3.409-6.137 0-12.18 2.967-15.911 8.438l-87.859 129.266c-5.344 8.202-11.223 11.572-16.851 11.572-0.121 0.018-0.121 0.018-0.121 0.018-6.698-0.091-11.572-3.703-16.972-11.591l-87.878-129.265c-3.722-5.491-9.757-8.441-15.893-8.441-3.758 0-7.573 1.106-10.9 3.409-5.418 3.796-8.356 9.86-8.347 16.032-0.007 3.795 1.106 7.628 3.39 11.001l87.869 129.264c12.172 17.948 29.945 28.47 48.731 28.47h0.083z" p-id="4955"></path><path d="M553.738 632.521c0.065 0 0.194 0 0.415 0 19.034 0.074 34.282-8.569 48.204-28.451l87.888-129.284c2.275-3.372 3.372-7.205 3.372-11.001 0-6.173-2.912-12.235-8.339-16.032-3.335-2.303-7.15-3.409-10.91-3.409-6.127 0-12.171 2.948-15.884 8.438l-87.86 129.265c-5.362 8.202-11.222 11.572-16.841 11.572-0.147 0.018-0.147 0.018-0.147 0.018-6.69-0.091-11.562-3.722-16.972-11.591l-87.85-129.265c-3.741-5.491-9.785-8.441-15.902-8.441-3.769 0-7.565 1.124-10.9 3.409-5.437 3.796-8.365 9.86-8.356 16.032-0.010 3.795 1.105 7.628 3.382 11.001l87.878 129.264c12.18 17.966 29.935 28.47 48.722 28.47h0.1v0.001z" p-id="4956"></path><path d="M397.68 398.352l-20.325-20.343c-1.475-1.494-3.418-2.249-5.334-2.286h-0.332c-1.972 0.037-3.915 0.791-5.399 2.286l-20.325 20.343c-1.52 1.511-2.284 3.538-2.284 5.51 0 1.989 0.765 4.017 2.284 5.529l20.325 20.345c1.53 1.509 3.547 2.286 5.547 2.286 1.972 0 3.99-0.774 5.492-2.267l20.351-20.362c1.52-1.511 2.286-3.518 2.286-5.529-0.002-1.989-0.767-4.017-2.287-5.51v0 0zM371.836 444.345v0c-10.705 0-19.402 8.551-19.402 19.182v149.811c0 10.614 8.697 19.165 19.402 19.182 10.679-0.018 19.369-8.569 19.369-19.182l0.018-149.811c0-10.631-8.716-19.182-19.386-19.182v0 0z" p-id="4957"></path></svg>