<?xml version="1.0" standalone="no"?><!DOCTYPE svg PUBLIC "-//W3C//DTD SVG 1.1//EN" "http://www.w3.org/Graphics/SVG/1.1/DTD/svg11.dtd"><svg t="1617895178341" class="icon" viewBox="0 0 1024 1024" version="1.1" xmlns="http://www.w3.org/2000/svg" p-id="25546" xmlns:xlink="http://www.w3.org/1999/xlink" width="200" height="200"><defs><style type="text/css"></style></defs><path d="M786.5 833.2c86.5-76.6 135.8-186.8 135.3-302.3 0.9-225.2-181-408.6-406.2-409.5-225.2-0.9-408.6 181-409.5 406.2-0.4 112.5 45.6 220.3 127.3 297.7l-57.7 65.2c-14.2 17.3-11.7 42.8 5.6 57 0.1 0.1 0.2 0.2 0.4 0.3 17.6 14.2 43.4 11.6 57.7-5.9l57.7-67.2c64.9 41.1 140.1 63 216.9 63.2 72.6-0.3 143.9-19.4 206.9-55.3l47.8 61.3c14 17.9 39.9 21.1 57.8 7.1 10.1-7.9 15.9-20 15.8-32.8-0.5-9.1-3.3-17.9-8-25.7l-47.8-59.3z" fill="#FF6A83" p-id="25547"></path><path d="M106.1 293.7c-22.9-0.1-41.6-18.6-41.8-41.5 0.1-7.6 2.2-15.1 6-21.7 43.7-70.1 106.5-126.4 181-162 19.3-9.7 42.9-2 52.6 17.4 0.4 0.8 0.8 1.6 1.1 2.4 9.6 19.1 2 42.4-17.1 52-0.9 0.5-1.9 0.9-2.8 1.3-60.4 29.7-111.3 75.6-147.2 132.5-6.6 11.4-18.6 18.8-31.8 19.6zM921.7 293.7c-14.4-0.4-27.8-7.8-35.8-19.8-35.4-57.3-86.5-103.3-147.2-132.5-19.5-9.9-28.1-33.1-19.9-53.4 10.2-19.4 33.4-28 53.7-19.8 74.5 35.7 137.4 91.9 181 162.1 11.6 18.3 6.3 42.5-12 54.2-0.6 0.4-1.3 0.8-1.9 1.2-1.9 6.1-9.9 8-17.9 8z" fill="#FF6A83" p-id="25548"></path><path d="M398.9 467.2l-3-35.1-29.5 13.9-0.6-19.1 26.5-14.5-0.2-30.5-131.5 51.4 3 37.9 68.7-33.2 0.2 19.9-97.1 48 3.8 34.8 97.7-47.7-0.6 169.2 39.4-12.8-7.2-170.1 30.4-12.1z" fill="#FFEA37" p-id="25549"></path><path d="M267.8 631.6l51.6-5.5 10.3-120.2-32.2 16.2-29.7 109.5z m237.5-96.8l-19.8 56.3-70.5 17.8-7.3-128.2-30.2 16.4 10 149.2 128.2-30.9 27.1-86.8-37.5 6.2z" fill="#FFEA37" p-id="25550"></path><path d="M416.2 524.1l21.6 30.5c8.9-25.5 11.9-52.6 9.1-79.4-2.7-26-9.3-51.4-19.4-75.5l-28.6 6.2s8.3 21.2 13.6 39.1c6.6 25.9 7.9 52.8 3.7 79.1z" fill="#FFEA37" p-id="25551"></path><path d="M439.4 582.2c-1.8 4.3 42.1-17.2 42.1-17.2 5.8-30.9 7.1-62.6 3.8-93.9-3.1-35.2-10.4-70-21.9-103.5l-37.1 7.1c8.2 13 14.5 27 18.8 41.7 4.2 15.5 7.3 31.3 9.2 47.2 1.9 24.2 1.3 48.5-1.7 72.5-2 15.9-6.5 31.5-13.2 46.1z m85.4-81.3l-16.2-130.3-25.1 23.6 15.1 127.9 26.2-21.2z m6.9-24.2l63.8-9.3 45.9-40.9 53 24.2 61.4-11.8s-79.9-32.9-78-39.1c37.5-25.5 69.1-92.4 69.1-92.4s-41.7 14.9-64.4 22.3c-2.4 16.1-44.2 58.2-44.2 58.2l-52.9-21.1-58.4 10.6 78 36-73.3 63.3z" fill="#FFEA37" p-id="25552"></path><path d="M589.9 416.4l-65 31.7 4.6 22.3 60.4-54z m161.8 74.5l8.2-33.1-93.9 12.8-3.8-27.2-40.9 14.5 2.3 17.2-90.1 12.7 5.8 34.2 91.8-11.1 10.8 43.3-26.4 1.7-10.4 32.8h33.4l23.7-6.6 37.7-31-29.4-50.8 81.2-9.4z" fill="#FFEA37" p-id="25553"></path><path d="M572.7 524.1l-43.8 90.1 51.5-9.6 36.1-86.3-43.8 5.8z m161.4-21.9l-37.5 5.6 31.3 58.8 68.9 3.4-62.7-67.8z" fill="#FFEA37" p-id="25554"></path><path d="M725.5 574.1L255 695.2l93.6 44.1 376.9-165.2z" fill="#FFFFFF" p-id="25555"></path><path d="M627.1 627.1m-166.3 0a166.3 166.3 0 1 0 332.6 0 166.3 166.3 0 1 0-332.6 0Z" fill="#FFFFFF" opacity=".2" p-id="25556"></path></svg>