<?xml version="1.0" standalone="no"?><!DOCTYPE svg PUBLIC "-//W3C//DTD SVG 1.1//EN" "http://www.w3.org/Graphics/SVG/1.1/DTD/svg11.dtd"><svg t="1617894479715" class="icon" viewBox="0 0 1024 1024" version="1.1" xmlns="http://www.w3.org/2000/svg" p-id="6107" xmlns:xlink="http://www.w3.org/1999/xlink" width="200" height="200"><defs><style type="text/css"></style></defs><path d="M510.39232 0.6656C229.0176 0.6656 0.9216 228.74624 0.9216 510.1056c0 281.36448 228.096 509.45536 509.47072 509.45536s509.47072-228.09088 509.47072-509.45536c0-281.35936-228.096-509.45024-509.47072-509.45024z" fill="#FF8D4E" p-id="6108"></path><path d="M364.73856 206.22336c26.78784 0 52.06528 5.18144 75.81184 15.52896 23.74656 10.35776 44.4416 24.36096 62.1056 42.0096 17.65888 17.66912 31.5136 38.36416 41.55904 62.1056 10.05056 23.75168 15.07328 49.024 15.07328 75.81184 0 20.70528-3.51232 40.79616-10.50624 60.27776a269.32736 269.32736 0 0 1-26.94144 54.79936l-166.23616 260.3008c-6.0928 9.13408-14.31552 13.70112-24.65792 13.70112-8.53504 0-15.3856-3.04128-20.55168-9.13408-5.18144-6.07744-7.76704-12.78464-7.76704-20.09088 0-4.86912 1.51552-9.73312 4.56704-14.61248l99.5584-155.26912c-6.7072 1.2288-13.55776 2.28352-20.54656 3.19488a165.76 165.76 0 0 1-21.46816 1.37216c-26.8032 0-52.06016-5.02272-75.80672-15.07328-23.75168-10.04544-44.45696-23.8848-62.11072-41.55392-17.66912-17.65376-31.6672-38.35904-42.01472-62.1056-10.36288-23.74656-15.52896-49.00864-15.52896-75.80672 0-26.78784 5.16608-52.06016 15.52896-75.80672 10.3424-23.74656 24.3456-44.4416 42.01472-62.1056 17.65376-17.65888 38.35904-31.65696 62.1056-42.01472 23.75168-10.34752 49.00864-15.52896 75.81184-15.52896z m385.05472 190.7968c18.02752 0 35.04128 3.48672 51.0208 10.44992 15.98464 6.97344 29.91616 16.39936 41.8048 28.28288 11.8784 11.88864 21.21216 25.81504 27.97568 41.79968 6.7584 15.98464 10.1376 32.9984 10.1376 51.02592 0 13.93664-2.3552 27.45856-7.0656 40.57088a180.96128 180.96128 0 0 1-18.13504 36.88448l-111.88736 175.2064c-4.10112 6.144-9.63584 9.216-16.59904 9.216-5.74464 0-10.35776-2.048-13.83424-6.144-3.4816-4.096-5.2224-8.60672-5.2224-13.52704 0-3.2768 1.01376-6.5536 3.072-9.8304l67.01056-104.51456c-4.51584 0.82944-9.12384 1.536-13.83424 2.1504-4.71552 0.6144-9.5232 0.9216-14.44352 0.9216-18.04288 0-35.0464-3.3792-51.02592-10.1376-15.98464-6.7584-29.9264-16.0768-41.8048-27.97056-11.89376-11.8784-21.31456-25.82016-28.28288-41.8048-6.97344-15.97952-10.4448-32.98304-10.4448-51.0208 0-18.02752 3.47136-35.04128 10.4448-51.02592 6.9632-15.98464 16.384-29.91104 28.28288-41.79968 11.8784-11.8784 25.82016-21.30432 41.8048-28.28288 15.98464-6.9632 32.98304-10.4448 51.02592-10.4448z m-156.71296 317.9264c10.3424 0 19.18464 3.65568 26.49088 10.9568 7.30624 7.31136 10.9568 16.14336 10.9568 26.496 0 10.35776-3.65056 19.17952-10.9568 26.48576s-16.14336 10.9568-26.49088 10.9568c-10.36288 0-19.17952-3.65056-26.49088-10.9568-7.30624-7.30624-10.9568-16.128-10.9568-26.48576 0-10.34752 3.65056-19.18464 10.9568-26.49088 7.31136-7.30624 16.128-10.9568 26.49088-10.9568z m156.71296-281.09824c-13.12256 0-25.31328 2.4576-36.5824 7.3728-11.27424 4.92032-21.10976 11.48416-29.50656 19.67616-8.40192 8.20224-15.06304 18.03776-19.97824 29.50656a91.17696 91.17696 0 0 0-7.37792 36.27008c0 13.12256 2.4576 25.30816 7.3728 36.57728 4.92032 11.27936 11.58144 21.11488 19.98336 29.50656 8.3968 8.40704 18.2272 15.06304 29.50656 19.98336 11.26912 4.9152 23.45984 7.3728 36.5824 7.3728 12.6976 0 24.79104-2.4576 36.27008-7.3728 11.4688-4.9152 21.30432-11.57632 29.50656-19.98336 8.192-8.3968 14.75584-18.2272 19.67104-29.50656 4.9152-11.264 7.37792-23.4496 7.37792-36.57728 0-12.6976-2.4576-24.79104-7.3728-36.27008-4.92032-11.4688-11.47904-21.30432-19.67616-29.50656-8.20224-8.192-18.03776-14.75584-29.50656-19.67104a91.1616 91.1616 0 0 0-36.27008-7.37792zM364.74368 261.8624c-19.49696 0-37.6064 3.65056-54.3488 10.9568-16.75264 7.30624-31.37024 17.05472-43.84256 29.22496-12.48768 12.1856-22.3744 26.8032-29.68576 43.84256-7.30624 17.05472-10.9568 35.0208-10.9568 53.888 0 19.49184 3.65056 37.60128 10.9568 54.34368 7.30624 16.75264 17.2032 31.36512 29.68576 43.83744 12.47232 12.48768 27.0848 22.3744 43.84256 29.68576 16.7424 7.30624 34.85184 10.9568 54.3488 10.9568 18.8672 0 36.83328-3.65056 53.888-10.9568 17.03936-7.31136 31.65184-17.2032 43.84256-29.68576 12.17024-12.47232 21.91872-27.0848 29.22496-43.83744 7.30624-16.7424 10.9568-34.85184 10.9568-54.34368 0-18.8672-3.65056-36.83328-10.9568-53.888-7.30624-17.03936-17.05472-31.65184-29.22496-43.84256-12.19072-12.17024-26.8032-21.9136-43.84256-29.22496-17.05984-7.30624-35.0208-10.9568-53.888-10.9568z" fill="#FFFFFF" p-id="6109"></path></svg>