<?xml version="1.0" standalone="no"?><!DOCTYPE svg PUBLIC "-//W3C//DTD SVG 1.1//EN" "http://www.w3.org/Graphics/SVG/1.1/DTD/svg11.dtd"><svg t="1617895134618" class="icon" viewBox="0 0 1024 1024" version="1.1" xmlns="http://www.w3.org/2000/svg" p-id="24133" xmlns:xlink="http://www.w3.org/1999/xlink" width="200" height="200"><defs><style type="text/css"></style></defs><path d="M390.03022187 792.3484448c-1.8204448 10.92266667 1.8204448 21.84533333 7.28177813 29.1271104 5.46133333 7.28177813 16.384 12.74311147 27.30666667 12.74311147 12.74311147 0 23.66577813-5.46133333 29.12711146-16.384l305.83466667-327.68 3.64088853-5.46133334c5.46133333-10.92266667 5.46133333-23.66577813 0-34.5884448-5.46133333-9.10222187-16.384-16.384-27.30666666-18.20444373L546.5884448 384.56888853l63.7155552-162.0195552v-5.46133333c0-9.10222187-3.64088853-18.2044448-9.10222187-27.30666667-14.5635552-16.384-41.87022187-14.5635552-54.61333333 3.64088854L280.8035552 455.56622187l-3.64088853 5.46133333c-5.46133333 10.92266667-7.28177813 25.48622187-1.8204448 36.4088896 5.46133333 10.92266667 16.384 16.384 27.30666666 18.20444373l172.94222294 34.5884448-85.5608896 242.11911147z" fill="#FF0000" p-id="24134"></path><path d="M530.2044448 548.40888853l1.82044373-3.64088853c1.8204448-10.92266667 0-20.02488853-7.28177706-29.12711147-5.46133333-7.28177813-16.384-12.74311147-25.48622294-12.7431104l-163.84-30.94755626L541.12711147 275.34222187 493.7955552 395.4915552v5.46133333c0 9.10222187 3.64088853 18.2044448 9.10222293 25.48622294 5.46133333 5.46133333 14.5635552 9.10222187 21.84533334 10.92266666l183.86488853 45.5111104L457.38666667 745.01688853 530.2044448 548.40888853z" fill="#FF0000" p-id="24135"></path><path d="M877.90933333 213.44711147l-302.19377813-182.0444448c-41.87022187-25.48622187-94.66311147-25.48622187-136.53333333 0l-302.19377707 182.0444448c-40.04977813 23.66577813-65.536 67.3564448-65.536 112.8675552v369.55022186c0 47.3315552 25.48622187 91.02222187 65.536 112.86755627l302.19377707 182.04444373c21.84533333 12.74311147 45.51111147 18.2044448 69.1768896 18.2044448 23.66577813 0 47.3315552-5.46133333 69.17688853-18.2044448l305.83466667-182.04444373c10.92266667-5.46133333 16.384-21.84533333 7.28177813-32.768-5.46133333-10.92266667-21.84533333-16.384-32.768-7.28177813l-304.01422293 182.0444448c-27.30666667 16.384-60.07466667 16.384-89.20177707 0l-302.19377813-180.224c-25.48622187-14.5635552-41.87022187-43.69066667-41.87022187-72.81777814V328.13511147c0-30.9475552 16.384-58.25422187 41.87022187-72.81777814L464.6684448 75.09333333c27.30666667-18.2044448 60.07466667-18.2044448 89.20177707 0l302.19377813 180.224c25.48622187 14.5635552 41.87022187 43.69066667 41.87022187 72.81777814v309.4755552c0 12.74311147 10.92266667 23.66577813 23.66577813 23.66577813 12.74311147 0 23.66577813-10.92266667 23.66577813-23.66577813v-309.4755552c-1.8204448-47.3315552-25.48622187-91.02222187-67.3564448-114.688z" fill="#FF0000" p-id="24136"></path><path d="M577.536 233.472l-54.61333333 163.84 218.45333333 69.17688853L433.72088853 803.27111147l54.61333334-271.24622294-178.4035552-49.152 267.60533333-249.40088853z" fill="#FF0000" p-id="24137"></path></svg>