<?xml version="1.0" standalone="no"?><!DOCTYPE svg PUBLIC "-//W3C//DTD SVG 1.1//EN" "http://www.w3.org/Graphics/SVG/1.1/DTD/svg11.dtd"><svg t="1617894897483" class="icon" viewBox="0 0 1024 1024" version="1.1" xmlns="http://www.w3.org/2000/svg" p-id="21442" xmlns:xlink="http://www.w3.org/1999/xlink" width="200" height="200"><defs><style type="text/css"></style></defs><path d="M632.5 755.2h-277c-24.5 0-44.4-19.9-44.4-44.4V512.5c0-24.5 19.9-44.4 44.4-44.4h277c24.5 0 44.4 19.9 44.4 44.4v198.3c0 24.6-19.9 44.4-44.4 44.4z" fill="#FD8C62" p-id="21443"></path><path d="M789.2 372.2H296.4c-51.9 0-94 44.3-94 99v270.3c0 54.7 43.1 83.3 95.1 83.3h492.8c51.9 0 70.1-28.8 70.1-83.4V471c0-54.7-19.2-98.8-71.2-98.8zM650.7 698.6c0 30.7-37.2 55.6-66.4 55.6h-219c-29.2 0-71.5-24.9-71.5-55.6v-185c0-30.7 22.3-72.6 51.5-72.6h244.2c29.2 0 61.4 41.9 61.4 72.6v185z" fill="#0DC69A" p-id="21444"></path><path d="M762.1 851.7H268.4c-61.6 0-111.8-52.3-111.8-116.6V464.8c0-64.3 50.2-116.6 111.8-116.6H762c61.6 0 111.8 52.3 111.8 116.6v270.3c0 64.3-50.1 116.6-111.7 116.6zM268.4 383.4c-42.2 0-76.6 36.5-76.6 81.3V735c0 44.9 34.4 81.3 76.6 81.3H762c42.2 0 76.6-36.5 76.6-81.3V464.8c0-44.9-34.4-81.3-76.6-81.3H268.4z m317 382.1h-248c-38.9 0-70.5-32.8-70.5-73.2v-185c0-40.3 31.6-73.2 70.5-73.2h248.1c38.9 0 70.5 32.8 70.5 73.2v185c-0.1 40.3-31.7 73.2-70.6 73.2z m-248-296.2c-19.4 0-35.3 17-35.3 37.9v185c0 20.9 15.8 37.9 35.3 37.9h248.1c19.4 0 35.3-17 35.3-37.9v-185c0-20.9-15.8-37.9-35.3-37.9H337.4z" fill="#333333" p-id="21445"></path><path d="M458.7 367.6c-4.7 0-9.5-1.8-13.1-5.4-7.2-7.2-7.2-19 0-26.2l117.5-117.5c7.2-7.2 19-7.2 26.2 0 7.2 7.2 7.2 19 0 26.2L471.8 362.1c-3.6 3.7-8.4 5.5-13.1 5.5z" fill="#333333" p-id="21446"></path><path d="M464.1 367.6c-4.7 0-9.5-1.8-13.1-5.4L333.5 244.6c-7.2-7.2-7.2-19 0-26.2 7.2-7.2 19-7.2 26.2 0l117.5 117.5c7.2 7.2 7.2 19 0 26.2-3.6 3.7-8.3 5.5-13.1 5.5z" fill="#333333" p-id="21447"></path><path d="M338.4 223.3m-36.4 0a36.4 36.4 0 1 0 72.8 0 36.4 36.4 0 1 0-72.8 0Z" fill="#FCEB02" p-id="21448"></path><path d="M338.4 272.1c-26.9 0-48.7-21.9-48.7-48.7s21.9-48.7 48.7-48.7 48.7 21.9 48.7 48.7-21.8 48.7-48.7 48.7z m0-72.8c-13.2 0-24 10.8-24 24s10.8 24 24 24 24-10.8 24-24-10.8-24-24-24z" fill="#333333" p-id="21449"></path><path d="M584.4 223.3m-36.4 0a36.4 36.4 0 1 0 72.8 0 36.4 36.4 0 1 0-72.8 0Z" fill="#FCEB02" p-id="21450"></path><path d="M584.4 272.1c-26.9 0-48.7-21.9-48.7-48.7s21.9-48.7 48.7-48.7c26.9 0 48.7 21.9 48.7 48.7s-21.8 48.7-48.7 48.7z m0-72.8c-13.2 0-24 10.8-24 24s10.8 24 24 24 24-10.8 24-24-10.7-24-24-24z" fill="#333333" p-id="21451"></path><path d="M740.9 698.7m-37.8 0a37.8 37.8 0 1 0 75.6 0 37.8 37.8 0 1 0-75.6 0Z" fill="#FD8C62" p-id="21452"></path><path d="M740.9 748.8c-27.6 0-50.1-22.5-50.1-50.1s22.5-50.1 50.1-50.1 50.1 22.5 50.1 50.1-22.4 50.1-50.1 50.1z m0-75.5c-14 0-25.4 11.4-25.4 25.4s11.4 25.4 25.4 25.4 25.4-11.4 25.4-25.4-11.4-25.4-25.4-25.4z" fill="#333333" p-id="21453"></path><path d="M746.8 509.4H735c-12.7 0-22.9-10.3-22.9-22.9v-11.8c0-12.7 10.3-22.9 22.9-22.9h11.8c12.7 0 22.9 10.3 22.9 22.9v11.8c0.1 12.7-10.2 22.9-22.9 22.9z" fill="#FD8C62" p-id="21454"></path><path d="M746.8 521.8H735c-19.5 0-35.3-15.8-35.3-35.3v-11.8c0-19.5 15.8-35.3 35.3-35.3h11.8c19.5 0 35.3 15.8 35.3 35.3v11.8c0 19.5-15.8 35.3-35.3 35.3zM735 464.1c-5.8 0-10.6 4.7-10.6 10.6v11.8c0 5.8 4.7 10.6 10.6 10.6h11.8c5.8 0 10.6-4.7 10.6-10.6v-11.8c0-5.8-4.7-10.6-10.6-10.6H735z" fill="#333333" p-id="21455"></path><path d="M746.8 614.1H735c-12.7 0-22.9-10.3-22.9-22.9v-11.8c0-12.7 10.3-22.9 22.9-22.9h11.8c12.7 0 22.9 10.3 22.9 22.9v11.8c0.1 12.6-10.2 22.9-22.9 22.9z" fill="#FD8C62" p-id="21456"></path><path d="M746.8 626.5H735c-19.5 0-35.3-15.8-35.3-35.3v-11.8c0-19.5 15.8-35.3 35.3-35.3h11.8c19.5 0 35.3 15.8 35.3 35.3v11.8c0 19.4-15.8 35.3-35.3 35.3zM735 568.8c-5.8 0-10.6 4.7-10.6 10.6v11.8c0 5.8 4.7 10.6 10.6 10.6h11.8c5.8 0 10.6-4.7 10.6-10.6v-11.8c0-5.8-4.7-10.6-10.6-10.6H735z" fill="#333333" p-id="21457"></path><path d="M533.6 576.9l-92.8-53.6c-22.7-13.1-51.1 3.3-51.1 29.5V660c0 26.2 28.4 42.6 51.1 29.5l92.8-53.6c22.7-13.1 22.7-45.9 0-59z m-28.4 45.8l-61.7 35.6c-12.6 7.2-28.2-1.8-28.2-16.3v-71.3c0-14.5 15.7-23.6 28.2-16.3l61.7 35.6c12.5 7.4 12.5 25.5 0 32.7z" fill="#333333" p-id="21458"></path><path d="M234.9 493.8c-0.5 0-1 0-1.6-0.1-6.8-0.9-11.6-7-10.7-13.8 0.1-0.6 2-15.6 11.2-32.1 12.3-22.3 31.8-37.4 56.4-43.7 6.6-1.7 13.4 2.3 15.1 8.9 1.7 6.6-2.3 13.4-8.9 15.1-43.2 11.2-49.2 54.6-49.2 55-0.8 6.1-6.2 10.7-12.3 10.7z" fill="#FFFFFF" p-id="21459"></path></svg>