<?xml version="1.0" standalone="no"?><!DOCTYPE svg PUBLIC "-//W3C//DTD SVG 1.1//EN" "http://www.w3.org/Graphics/SVG/1.1/DTD/svg11.dtd"><svg t="1617893884494" class="icon" viewBox="0 0 1024 1024" version="1.1" xmlns="http://www.w3.org/2000/svg" p-id="1160" data-spm-anchor-id="a313x.7781069.0.i0" xmlns:xlink="http://www.w3.org/1999/xlink" width="200" height="200"><defs><style type="text/css"></style></defs><path d="M483.330026 1.608232c-6.65553-3.583747-14.846951-1.023928-18.430698 6.143566-1.535891 3.071783-2.047855 6.65553-1.023928 10.239277 16.894806 60.923696 22.014445 208.369279-211.441062 407.523208C40.993277 605.725551 82.974311 932.870438 363.018526 979.971111c-64.507443-137.71827-22.014445-273.388685-22.014445-273.388685s40.957106 315.369719 276.972432 306.666334c131.06274-12.287132 191.474472-82.426177 229.359795-151.541294 119.799536-221.168374 28.158011-481.757964-47.100672-568.791815-5.119638-5.631602-13.823023-6.65553-19.454625-1.535891-3.071783 2.559819-5.119638 6.65553-4.607675 10.75124 0.511964 44.028889-8.703385 121.335428-72.698864 172.531811-20.478553 15.870879-49.660491-2.047855-44.028889-27.134083 22.526409-109.048296 39.933179-335.336308-176.115557-445.920496z" fill="#F8B500" p-id="1161"></path><path d="M487.9377 430.121957c-6.65553-4.095711-14.846951-1.535891-18.942662 5.119639-1.535891 2.559819-2.047855 5.631602-2.047855 8.703385 5.631602 40.957106-5.631602 122.359355-135.158451 225.264085-128.502921 101.880802-110.584187 295.915094 53.756202 329.704706-35.325504-82.426177-7.167494-161.78057-7.167494-161.78057s17.40677 186.866798 157.172896 186.866798c77.818502-4.095711 114.679898-44.540853 138.230234-84.474032 80.378321-136.694343-11.775168-406.499281-185.84287-509.404011z" fill="#FCEABB" p-id="1162"></path></svg>