<?xml version="1.0" standalone="no"?><!DOCTYPE svg PUBLIC "-//W3C//DTD SVG 1.1//EN" "http://www.w3.org/Graphics/SVG/1.1/DTD/svg11.dtd"><svg t="1617894308668" class="icon" viewBox="0 0 1092 1024" version="1.1" xmlns="http://www.w3.org/2000/svg" p-id="2766" xmlns:xlink="http://www.w3.org/1999/xlink" width="213.28125" height="200"><defs><style type="text/css"></style></defs><path d="M1080.50706 406.069487c-5.61234-31.087104-24.597836-50.730295-47.441815-50.335678h-4.691566a141.667748 141.667748 0 0 1-142.018519-140.922358 162.231714 162.231714 0 0 1 12.276995-53.887237 63.4896 63.4896 0 0 0-21.923205-76.950448l-1.359238-0.876928L739.162765 7.505628l-1.315392-0.657696a64.804993 64.804993 0 0 0-26.307846-5.61234 71.55734 71.55734 0 0 0-50.993374 20.563966A132.372309 132.372309 0 0 1 436.227924 20.659551a71.864265 71.864265 0 0 0-51.431838-20.563966 66.997313 66.997313 0 0 0-25.957074 5.13003l-1.578471 0.701543L216.162797 82.833759l-1.359239 1.140007a63.533447 63.533447 0 0 0-21.703972 76.950448 156.66322 156.66322 0 0 1 12.320841 53.887237 141.711594 141.711594 0 0 1-142.062366 140.922358h-4.691566C35.866363 355.295345 17.275485 375.157769 11.268527 406.069487a509.67066 509.67066 0 0 0 0 212.479699c5.61234 30.692486 24.159371 50.335678 46.52104 50.335677h5.612341a141.623901 141.623901 0 0 1 142.062365 140.922359 162.231714 162.231714 0 0 1-12.320841 53.887237 63.533447 63.533447 0 0 0 21.703973 77.16968l1.359238 0.876928 134.213859 74.538896 1.359238 0.48231a64.015757 64.015757 0 0 0 26.307846 5.568494 70.154255 70.154255 0 0 0 51.212606-21.48474 132.372309 132.372309 0 0 1 229.009794 1.359238 70.680411 70.680411 0 0 0 51.65107 21.703973 65.287303 65.287303 0 0 0 25.693996-5.173876l1.578471-0.876929 138.905424-76.248905 1.315392-0.876928a63.577293 63.577293 0 0 0 21.703973-76.950448 156.619373 156.619373 0 0 1-12.276995-53.887237 141.667748 141.667748 0 0 1 142.018519-140.922359h4.691566c22.843979 0.482311 41.610242-19.423959 47.441815-50.335677a505.987561 505.987561 0 0 0-0.219232-212.479699z" fill="#F9B031" p-id="2767"></path><path d="M545.975486 512.002412m-173.719473 0a173.719473 173.719473 0 1 0 347.438946 0 173.719473 173.719473 0 1 0-347.438946 0Z" fill="#55514A" p-id="2768"></path><path d="M545.975486 735.399866a223.397454 223.397454 0 1 1 223.397455-223.397454 223.616686 223.616686 0 0 1-223.397455 223.397454z m0-347.395099a123.997645 123.997645 0 1 0 123.997645 123.997645 124.173031 124.173031 0 0 0-123.997645-124.041492z" fill="#FFFFFF" p-id="2769"></path></svg>