<?xml version="1.0" standalone="no"?><!DOCTYPE svg PUBLIC "-//W3C//DTD SVG 1.1//EN" "http://www.w3.org/Graphics/SVG/1.1/DTD/svg11.dtd"><svg t="1617894815908" class="icon" viewBox="0 0 1024 1024" version="1.1" xmlns="http://www.w3.org/2000/svg" p-id="17997" xmlns:xlink="http://www.w3.org/1999/xlink" width="200" height="200"><defs><style type="text/css"></style></defs><path d="M748.307692 787.692308H275.692308c-149.661538 0-275.692308-122.092308-275.692308-275.692308 0-149.661538 122.092308-275.692308 275.692308-275.692308h472.615384c149.661538 0 275.692308 122.092308 275.692308 275.692308 0 149.661538-122.092308 275.692308-275.692308 275.692308z" fill="#E02935" p-id="17998"></path><path d="M141.784615 649.846154v-275.692308h39.384616L267.815385 512c19.692308 31.507692 35.446154 63.015385 51.2 90.584615-3.938462-39.384615-3.938462-70.892308-3.938462-114.215384v-118.153846h35.446154v275.692307h-39.384615l-86.646154-141.784615c-19.692308-31.507692-39.384615-63.015385-51.2-90.584615 0 35.446154 3.938462 66.953846 3.938461 114.215384v118.153846h-35.446154z m287.507693-94.523077c0 47.261538 31.507692 66.953846 66.953846 66.953846 27.569231 0 39.384615-3.938462 55.138461-11.815385l3.938462 27.569231c-11.815385 3.938462-35.446154 11.815385-66.953846 11.815385-63.015385 0-98.461538-39.384615-98.461539-98.461539s35.446154-106.338462 94.523077-106.338461c63.015385 0 82.707692 55.138462 82.707693 94.523077v15.753846h-137.846154z m106.338461-27.569231c0-23.630769-7.876923-59.076923-51.2-59.076923-35.446154 0-51.2 35.446154-55.138461 59.076923h106.338461z m94.523077-78.769231l27.569231 102.4c3.938462 23.630769 11.815385 43.323077 15.753846 63.015385 3.938462-19.692308 11.815385-39.384615 15.753846-63.015385l31.507693-102.4h31.507692l31.507692 98.461539c7.876923 23.630769 11.815385 43.323077 15.753846 63.015384 3.938462-19.692308 7.876923-39.384615 15.753846-63.015384l27.569231-98.461539h35.446154l-63.015385 196.923077h-31.507692l-31.507692-94.523077c-7.876923-23.630769-11.815385-43.323077-15.753846-66.953846-3.938462 23.630769-11.815385 43.323077-19.692308 66.953846l-31.507692 94.523077h-31.507693l-59.076923-196.923077h35.446154z m0 0" fill="#F4EDED" p-id="17999"></path></svg>