<?xml version="1.0" standalone="no"?><!DOCTYPE svg PUBLIC "-//W3C//DTD SVG 1.1//EN" "http://www.w3.org/Graphics/SVG/1.1/DTD/svg11.dtd"><svg t="1617895062847" class="icon" viewBox="0 0 1024 1024" version="1.1" xmlns="http://www.w3.org/2000/svg" p-id="23790" xmlns:xlink="http://www.w3.org/1999/xlink" width="200" height="200"><defs><style type="text/css"></style></defs><path d="M902.0416 409.3952c25.77408-17.1008 27.60192-32.09728 27.60192-54.69184V219.13088c0-43.70944-35.52768-79.19104-79.1552-79.19104H172.53376c-43.6224 0-79.14496 35.4816-79.14496 79.19104v135.57248c0 22.59968 2.14528 40.97536 29.16352 55.52128 18.42176 8.67328 61.21984 33.62304 61.21984 80.13824 0 52.8384-31.39072 70.144-58.65984 79.40096l-2.47296 1.152c-26.43968 16.52736-29.25056 43.9552-29.25056 54.98368v135.53664c0 43.65824 35.52768 79.22688 79.15008 79.22688H850.4832c43.62752 0 79.1552-35.56352 79.1552-79.22688v-135.53664c0-29.29152-8.09984-40.1152-28.75392-55.39328-46.59712-23.9616-61.63456-43.54048-61.63456-80.13824 0-36.73088 13.97248-54.784 62.79168-80.9728z m-243.5584 69.56544c0 12.5184-10.1632 22.72256-22.64064 22.72256h-90.30144v22.38976h90.30144c12.47744 0 22.64064 10.19904 22.64064 22.72256v22.54848c0 12.5184-10.1632 22.8096-22.64064 22.8096h-90.30144v67.61984a22.67136 22.67136 0 0 1-22.71744 22.67648h-22.64064a22.67136 22.67136 0 0 1-22.72256-22.67648v-67.61984H387.16928c-12.47232 0-22.63552-10.2912-22.63552-22.8096v-22.54848c0-12.5184 10.1632-22.72256 22.63552-22.72256h90.30144v-22.38976H387.16928c-12.47232 0-22.63552-10.20416-22.63552-22.72256v-22.5536c0-12.51328 10.1632-22.72256 22.63552-22.72256h59.40736l-75.10528-80.5888c-7.93088-8.80128-7.93088-22.51264 0-31.232l14.37696-15.65696c7.93088-8.59136 23.30112-8.7552 31.232 0l94.34624 101.248 94.34624-101.32992c7.85408-8.59648 23.37792-8.59648 31.232 0.08192l14.5408 15.78496c7.93088 8.80128 7.93088 22.59968 0 31.3088l-74.84928 80.38912h59.15648c12.47744 0 22.64064 10.20416 22.64064 22.72256v22.54848h-0.01024z" fill="#FFC700" p-id="23791"></path><path d="M850.4832 139.93984c43.62752 0 79.1552 35.4816 79.1552 79.19104v135.57248c0 22.59456-1.82272 37.59104-27.60192 54.69184-48.8192 26.1888-62.79168 44.24192-62.79168 80.96256 0 36.59776 15.04256 56.18176 61.63456 80.13824 20.65408 15.27808 28.75392 26.10688 28.75392 55.39328v135.53664c0 43.65824-35.52768 79.22688-79.1552 79.22688H172.53376c-43.6224 0-79.15008-35.56352-79.15008-79.22688v-135.53664c0-11.02848 2.81088-38.46144 29.25056-54.98368l2.47296-1.152c27.264-9.25696 58.65984-26.56256 58.65984-79.40096 0-46.51008-42.79296-71.46496-61.21984-80.13824-27.01824-14.5408-29.16352-32.9216-29.16352-55.52128V219.13088c0-43.70944 35.52256-79.19104 79.14496-79.19104H850.4832m-339.06176 267.52L417.0752 306.20672c-3.94752-4.35712-9.73312-6.50752-15.53408-6.50752-5.85216 0-11.71456 2.19136-15.69792 6.50752l-14.37696 15.65696c-7.93088 8.71424-7.93088 22.43072 0 31.232l75.10528 80.5888H387.16928c-12.47232 0-22.63552 10.20416-22.63552 22.72256v22.5536c0 12.51328 10.1632 22.72256 22.63552 22.72256h90.30144v22.38976H387.16928c-12.47232 0-22.63552 10.19904-22.63552 22.72256v22.54848c0 12.5184 10.1632 22.8096 22.63552 22.8096h90.30144v67.61984a22.67136 22.67136 0 0 0 22.72256 22.67648h22.64064a22.67648 22.67648 0 0 0 22.71744-22.67648v-67.61984h90.30144c12.47744 0 22.64064-10.2912 22.64064-22.8096v-22.54848c0-12.5184-10.1632-22.72256-22.64064-22.72256h-90.30144v-22.38976h90.30144c12.47744 0 22.64064-10.20416 22.64064-22.72256v-22.5536c0-12.5184-10.1632-22.72256-22.64064-22.72256h-59.15648l74.84928-80.38912c7.93088-8.71424 7.93088-22.50752 0-31.3088l-14.5408-15.78496c-3.93728-4.34688-9.79456-6.51776-15.65696-6.51776-5.83168 0-11.65312 2.1504-15.57504 6.43584L511.42144 407.45984m339.06176-303.36H172.53376c-63.40608 0-114.98496 51.60448-114.98496 115.03104v135.57248c0 19.87584 0 61.23008 48.01536 87.07584l0.84992 0.45568 0.8704 0.4096c12.22144 5.75488 40.64256 21.92384 40.64256 47.71328 0 28.57984-11.56096 37.72928-34.33984 45.46048l-1.82784 0.62464-1.75104 0.80896-2.47296 1.152-2.01728 0.93696-1.88416 1.1776c-41.6 25.99936-46.09024 68.37248-46.09024 85.376v135.53664c0 63.44704 51.584 115.06688 114.99008 115.06688H850.4832c63.4112 0 114.9952-51.61984 114.9952-115.06688v-135.53664c0-43.648-15.872-63.92832-43.27936-84.20864l-2.33984-1.73056-2.5856-1.3312c-42.18368-21.68832-42.18368-32.26112-42.18368-48.26624 0-17.2032 0-25.83552 43.88864-49.3824l1.47968-0.7936 1.39264-0.92672c40.25344-26.70592 43.62752-56.41728 43.62752-84.5568V219.13088c0-63.42656-51.584-115.03104-114.9952-115.03104z" fill="#333333" p-id="23792"></path></svg>